<svg width="38" height="35" fill="none" xmlns="http://www.w3.org/2000/svg"><path d="M24.712 24.093h-.904V11.768c0-1.179-1.072-2.137-2.39-2.137h-1.245v-.723c1.413-.436 2.43-1.635 2.43-3.044 0-.79-.323-2.115-.786-3.224C21.077.864 20.155 0 19.001 0c-1.155 0-2.076.864-2.817 2.64-.463 1.109-.786 2.435-.786 3.224 0 1.409 1.018 2.608 2.43 3.044v.723h-1.244c-1.318 0-2.39.958-2.39 2.137v12.324h-.904c-.648 0-1.173.47-1.173 1.049v8.715c0 .579.525 1.048 1.173 1.048h11.422c.647 0 1.172-.47 1.172-1.048V25.14c0-.58-.525-1.048-1.172-1.048zM19 2.253c.634.792 1.257 2.763 1.257 3.611 0 .62-.564 1.124-1.257 1.124-.694 0-1.258-.504-1.258-1.124 0-.796.59-2.776 1.258-3.612zm-2.463 9.515c0-.023.02-.04.046-.04h4.834c.024 0 .045.018.045.04v12.325h-4.925V11.768zm7.001 21.04h-9.077v-6.62h9.077v6.62z" fill="#fff"/><path d="M21.755 27.68c-.49-.38-1.23-.332-1.654.106L19 28.922l-1.1-1.136c-.424-.438-1.165-.485-1.654-.106-.49.378-.543 1.04-.12 1.478l1.987 2.052c.466.481 1.305.484 1.773 0l1.987-2.052c.424-.438.37-1.1-.12-1.478zM10.356 11.075H1.173c-.648 0-1.173.47-1.173 1.048v8.594c0 2.482 1.974 4.56 4.592 5.046v7.045H1.478c-.647 0-1.172.469-1.172 1.048 0 .579.525 1.048 1.172 1.048h8.572c.648 0 1.173-.47 1.173-1.048 0-.58-.525-1.048-1.173-1.048H6.937v-7.046c2.618-.485 4.592-2.563 4.592-5.045v-8.594c0-.579-.525-1.048-1.173-1.048zm-1.172 2.097v2.085H2.345v-2.085h6.839zm0 7.545c0 1.685-1.534 3.056-3.42 3.056-1.885 0-3.419-1.37-3.419-3.056v-3.364h6.839v3.364zm27.643-9.642h-9.184c-.647 0-1.172.47-1.172 1.048v8.594c0 2.482 1.973 4.56 4.591 5.046v7.045H27.95c-.648 0-1.172.469-1.172 1.048 0 .579.524 1.048 1.172 1.048h8.572c.647 0 1.172-.47 1.172-1.048 0-.58-.525-1.048-1.172-1.048h-3.114v-7.046C36.026 25.277 38 23.2 38 20.718v-8.594c0-.579-.525-1.048-1.172-1.048zm-1.173 2.097v2.085h-6.838v-2.085h6.838zm0 7.545c0 1.685-1.534 3.056-3.419 3.056s-3.42-1.37-3.42-3.056v-3.364h6.84v3.364z" fill="#DABD74"/></svg>