<svg width="34" height="39" fill="none" xmlns="http://www.w3.org/2000/svg"><path d="M17 14.97c-1.715-3.106-4.41-5.142-7.887-5.142-5.224 0-9.002 4.345-9.002 9.676 0 6.431 6.402 11.263 12.058 16.01.887.745 1.804 1.514 2.757 2.325 1.329 1.13 3.323 1.124 4.639-.015 9.833-8.513 14.325-12.35 14.325-18.32 0-5.328-3.775-9.676-9.001-9.676-3.478 0-6.173 2.037-7.888 5.142zm0 3.601a2.23 2.23 0 012.228 2.227A2.23 2.23 0 0117 23.025a2.23 2.23 0 01-2.227-2.227A2.23 2.23 0 0117 18.571zm1.108 17.57a1.344 1.344 0 01-1.74.002c-.957-.815-3.74-3.152-4.209-3.546.267-.147.517-.332.74-.556a3.342 3.342 0 00.663-3.764 7.757 7.757 0 013.439-.798c1.256 0 2.47.296 3.566.862a3.333 3.333 0 001.448 4.4 692.498 692.498 0 01-3.907 3.4zm6.78-24.086c3.863 0 6.775 3.203 6.775 7.45 0 3.65-2.203 6.488-7.29 11.129-.148.046-.916.613-1.59-.06a1.128 1.128 0 01.052-1.625c4.473-4.065 6.602-6.521 6.602-9.487H27.21c0 1.786-1.27 3.582-5.14 7.167A9.949 9.949 0 0017 25.252a9.965 9.965 0 00-4.95 1.308c-3.265-2.896-5.258-5.127-5.258-7.098H4.565c0 2.96 2.454 5.676 6.692 9.367.49.427.523 1.182.068 1.637-.695.696-1.612.044-1.604.044-4.558-3.99-7.383-7.154-7.383-11.006 0-4.246 2.913-7.449 6.775-7.449 3.504 0 5.392 2.768 6.258 4.6a4.46 4.46 0 00-2.824 4.143 4.459 4.459 0 004.454 4.454 4.459 4.459 0 004.453-4.454 4.46 4.46 0 00-2.823-4.143c.865-1.832 2.753-4.6 6.258-4.6z" fill="#DABD74"/><path d="M6.98.683c-1.192 0-2.315.48-3.162 1.353a4.538 4.538 0 00-1.293 3.175A4.459 4.459 0 006.98 9.664a4.459 4.459 0 004.454-4.453c0-1.188-.46-2.316-1.293-3.175A4.377 4.377 0 006.98.683zm0 6.754a2.23 2.23 0 01-2.228-2.226c0-1.248 1.02-2.302 2.227-2.302 1.207 0 2.227 1.054 2.227 2.302a2.23 2.23 0 01-2.227 2.226zM31.476 5.21c0-1.187-.46-2.315-1.293-3.174a4.377 4.377 0 00-3.16-1.353c-1.192 0-2.315.48-3.162 1.353a4.538 4.538 0 00-1.293 3.175 4.459 4.459 0 004.454 4.453 4.459 4.459 0 004.454-4.453zm-6.68 0c0-1.247 1.019-2.3 2.226-2.3s2.227 1.053 2.227 2.3a2.23 2.23 0 01-2.227 2.227 2.23 2.23 0 01-2.227-2.226z" fill="#fff"/></svg>