<svg width="38" height="39" fill="none" xmlns="http://www.w3.org/2000/svg"><g clip-path="url(#clip0_84:5588)"><path d="M36.884 31.688h-.08V16.112a5.888 5.888 0 00-5.88-5.882h-8.355c6.877-6.549.223-12.002-3.568-8.4-3.79-3.602-10.442 1.854-3.565 8.4H7.081A5.888 5.888 0 001.2 16.112v15.576h-.08c-.614 0-1.112.5-1.112 1.115a5.887 5.887 0 005.881 5.88h26.226a5.888 5.888 0 005.882-5.882c0-.614-.498-1.113-1.113-1.113zM14.667 4.531c0-.888.723-1.611 1.611-1.611 1.225 0 1.6 1.177 1.646 1.342.118.504.561.86 1.078.86h.002c.518 0 .96-.358 1.077-.862.046-.165.418-1.34 1.645-1.34.889 0 1.611.723 1.611 1.611 0 2.212-2.822 4.844-4.335 5.64-1.444-.76-4.335-3.382-4.335-5.64zM3.426 16.111a3.66 3.66 0 013.655-3.655h23.842a3.66 3.66 0 013.656 3.656v7.302c-.065 1.687-2.48 1.684-2.543 0v-4.918c-.183-4.641-6.814-4.634-6.994 0v2.384c-.065 1.687-2.479 1.685-2.543 0v-2.384c-.197-4.663-6.816-4.614-6.994 0a1.272 1.272 0 01-2.542 0c-.192-4.639-6.803-4.638-6.995 0v7.153c-.064 1.687-2.478 1.685-2.542 0v-9.537zm0 12.793c2.206.905 4.803-.796 4.768-3.255v-7.153c0-.7.57-1.271 1.271-1.271s1.272.57 1.272 1.271a3.501 3.501 0 003.497 3.497 3.501 3.501 0 003.497-3.497c0-.7.57-1.271 1.271-1.271a1.27 1.27 0 011.271 1.271v2.384c.183 4.64 6.814 4.637 6.995 0v-2.384c.064-1.685 2.478-1.686 2.542 0v4.917c-.034 2.46 2.563 4.16 4.769 3.256v5.02H3.426v-2.785zm28.69 7.553H5.888a3.662 3.662 0 01-3.482-2.543h33.19a3.662 3.662 0 01-3.482 2.543z" fill="#DABD74"/><mask id="a" style="mask-type:alpha" maskUnits="userSpaceOnUse" x="0" y="0" width="38" height="39"><path d="M36.882 31.688h-.08V16.112a5.888 5.888 0 00-5.88-5.882h-8.355c6.877-6.549.223-12.002-3.568-8.4-3.79-3.602-10.441 1.854-3.565 8.4H7.08a5.888 5.888 0 00-5.881 5.882v15.576h-.08c-.614 0-1.112.5-1.112 1.115a5.887 5.887 0 005.881 5.88h26.227a5.888 5.888 0 005.88-5.882c0-.614-.497-1.113-1.112-1.113zM14.665 4.531c0-.888.723-1.611 1.611-1.611 1.225 0 1.6 1.177 1.646 1.342.118.504.561.86 1.078.86h.002c.518 0 .961-.358 1.077-.862.046-.165.418-1.34 1.645-1.34.889 0 1.611.723 1.611 1.611 0 2.212-2.822 4.844-4.335 5.64-1.444-.76-4.335-3.382-4.335-5.64zM3.424 16.111a3.66 3.66 0 013.655-3.655h23.842a3.66 3.66 0 013.656 3.656v7.302c-.065 1.687-2.48 1.684-2.543 0v-4.918c-.183-4.641-6.814-4.634-6.994 0v2.384c-.065 1.687-2.479 1.685-2.543 0v-2.384c-.197-4.663-6.816-4.614-6.994 0a1.272 1.272 0 01-2.542 0c-.192-4.639-6.803-4.638-6.995 0v7.153c-.064 1.687-2.478 1.685-2.542 0v-9.537zm0 12.793c2.206.905 4.803-.796 4.768-3.255v-7.153a1.273 1.273 0 012.542 0 3.501 3.501 0 003.498 3.497 3.501 3.501 0 003.497-3.497c0-.7.57-1.271 1.271-1.271a1.27 1.27 0 011.271 1.271v2.384c.183 4.64 6.814 4.637 6.995 0v-2.384c.064-1.685 2.478-1.686 2.542 0v4.917c-.034 2.46 2.563 4.16 4.769 3.256v5.02H3.424v-2.785zm28.69 7.553H5.887a3.662 3.662 0 01-3.482-2.543h33.19a3.662 3.662 0 01-3.481 2.543z" fill="#000"/></mask><g mask="url(#a)"><rect x="3.402" y="14.861" width="31.194" height="15.881" rx="2" fill="#fff"/></g></g><defs><clipPath id="clip0_84:5588"><path fill="#fff" transform="translate(0 .683)" d="M0 0h38v38H0z"/></clipPath></defs></svg>