<svg width="38" height="38" fill="none" xmlns="http://www.w3.org/2000/svg"><path d="M11.152 5.085L3.8 31.343a3.33 3.33 0 00-2.822.946A3.328 3.328 0 000 34.656c0 .893.347 1.734.978 2.366.65.652 1.506.978 2.36.978.855 0 1.71-.327 2.36-.978a3.328 3.328 0 00.947-2.828l26.208-7.366L11.15 5.085zM4.126 35.443a1.113 1.113 0 11-1.575-1.574 1.113 1.113 0 011.575 1.574zm17.097-7.664L5.904 32.084l4.27-15.25h1.762v4.653h4.644v4.653h4.644v1.639zm-2.418-3.87v-4.654h-4.644v-4.653H10.8l1.468-5.244 16.32 16.351-5.138 1.444v-3.245h-4.644z" fill="#DABD74"/><path d="M20.61 0l-2.154.563c.037.148.878 3.661-2.073 6.45l1.526 1.624C21.845 4.918 20.662.199 20.609 0zm3.863 2.938h2.225v2.231h-2.225V2.938zm9.254 6.984h2.225v2.232h-2.225V9.922zm-1.114 10.514h2.226v2.232h-2.226v-2.232zm-2.651-4.756c-1.9.804-2.983 1.918-3.028 1.965l1.603 1.548c.033-.034 3.36-3.414 8.744-1.571l.72-2.113c-3.492-1.194-6.3-.567-8.04.17zm-6.525-1.799c.102-.032 2.534-.807 5.249-2.83C32.297 8.363 34.708 4.72 35.658.516L33.487.02c-.837 3.704-2.878 6.797-6.066 9.193-2.42 1.817-4.627 2.53-4.65 2.538l.329 1.047.337 1.082z" fill="#fff"/></svg>