<svg width="38" height="38" fill="none" xmlns="http://www.w3.org/2000/svg"><g clip-path="url(#clip0_84:5624)"><path d="M22.96 24.067c-.792 0-1.584-.317-2.06-.792l-1.582-1.583a.765.765 0 010-1.108.765.765 0 011.108 0l1.583 1.583c.475.475 1.425.475 2.059 0 .633-.634.633-1.425 0-2.059l-4.75-4.75a.765.765 0 010-1.108.765.765 0 011.108 0l4.75 4.75c1.108 1.108 1.108 3.009 0 4.275-.633.475-1.425.792-2.217.792zM5.54 13.458a.87.87 0 01-.791-.475c-.159-.475 0-.791.475-1.108l6.808-2.85c1.425-.633 3.167-.317 4.275.792l.95.95a.765.765 0 010 1.108.765.765 0 01-1.108 0l-.95-.792c-.633-.633-1.742-.791-2.534-.475l-6.808 2.85H5.54z" fill="#DABD74"/><path d="M17.1 16.625c-.792 0-1.426-.317-2.059-.792-.633-.792-.95-1.742-.792-2.692.159-.95.634-1.741 1.584-2.058l5.541-2.692c1.109-.475 2.217-.633 3.325-.158l8.234 3.325c.475.158.633.633.475 1.108-.159.475-.634.634-1.109.475l-8.233-3.325c-.633-.316-1.425-.316-1.9 0l-5.542 2.692c-.475.158-.791.475-.791.95s0 .792.316 1.108c.475.475 1.109.475 1.584.317l4.908-2.533c.317-.159.792 0 1.108.316.159.317 0 .792-.316 1.109l-4.909 2.533c-.475.158-.95.317-1.425.317zm2.692 10.45c-.792 0-1.584-.316-2.059-.95l-2.058-2.058a.765.765 0 010-1.108.765.765 0 011.108 0l2.059 2.058c.475.475 1.425.475 2.058 0 .633-.475.475-1.425 0-2.058l-1.583-1.584a.765.765 0 010-1.108.765.765 0 011.108 0l1.583 1.583c1.109 1.108 1.109 3.008 0 4.275-.633.634-1.425.95-2.216.95z" fill="#DABD74"/><path d="M16.308 29.925c-.791 0-1.425-.316-2.058-.791l-3.642-3.325c-1.425-1.267-3.166-1.9-5.066-1.9-.475-.159-.792-.475-.792-.95s.317-.792.792-.792a9.16 9.16 0 016.175 2.375l3.641 3.325a1.665 1.665 0 002.059 0c.633-.633.633-1.425 0-2.058l-1.584-1.584a.765.765 0 010-1.108.765.765 0 011.109 0l1.583 1.583c1.108 1.109 1.108 3.009 0 4.275-.633.634-1.425.95-2.217.95zm12.351-5.384c-.475 0-.792 0-1.267-.158l-3.008-.95c-.475-.158-.633-.633-.475-.95.158-.475.633-.633.95-.475l3.008.95a2.212 2.212 0 002.375-.475l1.742-1.583a.765.765 0 011.108 0 .765.765 0 010 1.108l-1.741 1.583c-.95.634-1.9.95-2.692.95z" fill="#DABD74"/><path d="M37.208 25.333h-4.75c-.475 0-.792-.316-.792-.791v-14.25c0-.475.317-.792.792-.792h4.75c.475 0 .791.317.791.792v14.25c0 .475-.316.791-.791.791zm-3.959-1.583h3.167V11.083h-3.167V23.75zM5.542 25.333H.792c-.475 0-.792-.316-.792-.791v-14.25C0 9.817.317 9.5.792 9.5h4.75c.475 0 .791.317.791.792v14.25c0 .475-.316.791-.791.791zM1.583 23.75H4.75V11.083H1.583V23.75z" fill="#fff"/></g><defs><clipPath id="clip0_84:5624"><path fill="#fff" d="M0 0h38v38H0z"/></clipPath></defs></svg>